<svg width="51" height="51" viewBox="0 0 51 51" fill="none" xmlns="http://www.w3.org/2000/svg">
<path d="M20.3105 21.4688V22.2422L16.9004 30H15.4121L18.8164 22.5938H14.3984V21.4688H20.3105ZM27.0254 25.0195V26.4141C27.0254 27.082 26.959 27.6523 26.8262 28.125C26.6973 28.5938 26.5098 28.9746 26.2637 29.2676C26.0176 29.5605 25.7227 29.7754 25.3789 29.9121C25.0391 30.0488 24.6582 30.1172 24.2363 30.1172C23.9004 30.1172 23.5879 30.0742 23.2988 29.9883C23.0137 29.9023 22.7559 29.7676 22.5254 29.584C22.2949 29.4004 22.0977 29.1641 21.9336 28.875C21.7734 28.582 21.6484 28.2324 21.5586 27.8262C21.4727 27.4199 21.4297 26.9492 21.4297 26.4141V25.0195C21.4297 24.3477 21.4961 23.7812 21.6289 23.3203C21.7617 22.8555 21.9512 22.4785 22.1973 22.1895C22.4434 21.8965 22.7363 21.6836 23.0762 21.5508C23.4199 21.418 23.8027 21.3516 24.2246 21.3516C24.5645 21.3516 24.877 21.3945 25.1621 21.4805C25.4512 21.5625 25.709 21.6934 25.9355 21.873C26.166 22.0527 26.3613 22.2871 26.5215 22.5762C26.6855 22.8613 26.8105 23.207 26.8965 23.6133C26.9824 24.0156 27.0254 24.4844 27.0254 25.0195ZM25.6133 26.6133V24.8086C25.6133 24.4688 25.5938 24.1699 25.5547 23.9121C25.5156 23.6504 25.457 23.4297 25.3789 23.25C25.3047 23.0664 25.2109 22.918 25.0977 22.8047C24.9844 22.6875 24.8555 22.6035 24.7109 22.5527C24.5664 22.498 24.4043 22.4707 24.2246 22.4707C24.0059 22.4707 23.8105 22.5137 23.6387 22.5996C23.4668 22.6816 23.3223 22.8145 23.2051 22.998C23.0879 23.1816 22.998 23.4238 22.9355 23.7246C22.877 24.0215 22.8477 24.3828 22.8477 24.8086V26.6133C22.8477 26.957 22.8672 27.2598 22.9062 27.5215C22.9453 27.7832 23.0039 28.0078 23.082 28.1953C23.1602 28.3789 23.2539 28.5312 23.3633 28.6523C23.4766 28.7695 23.6055 28.8555 23.75 28.9102C23.8984 28.9648 24.0605 28.9922 24.2363 28.9922C24.459 28.9922 24.6562 28.9492 24.8281 28.8633C25 28.7773 25.1445 28.6406 25.2617 28.4531C25.3789 28.2617 25.4668 28.0137 25.5254 27.709C25.584 27.4043 25.6133 27.0391 25.6133 26.6133ZM28.2266 23.5605V23.1094C28.2266 22.7852 28.2969 22.4902 28.4375 22.2246C28.5781 21.959 28.7832 21.7461 29.0527 21.5859C29.3223 21.4258 29.6465 21.3457 30.0254 21.3457C30.416 21.3457 30.7441 21.4258 31.0098 21.5859C31.2793 21.7461 31.4844 21.959 31.625 22.2246C31.7656 22.4902 31.8359 22.7852 31.8359 23.1094V23.5605C31.8359 23.877 31.7656 24.168 31.625 24.4336C31.4883 24.6992 31.2852 24.9121 31.0156 25.0723C30.75 25.2324 30.4238 25.3125 30.0371 25.3125C29.6543 25.3125 29.3262 25.2324 29.0527 25.0723C28.7832 24.9121 28.5781 24.6992 28.4375 24.4336C28.2969 24.168 28.2266 23.877 28.2266 23.5605ZM29.2051 23.1094V23.5605C29.2051 23.7168 29.2344 23.8652 29.293 24.0059C29.3555 24.1465 29.4492 24.2598 29.5742 24.3457C29.6992 24.4316 29.8535 24.4746 30.0371 24.4746C30.2246 24.4746 30.377 24.4316 30.4941 24.3457C30.6152 24.2598 30.7051 24.1465 30.7637 24.0059C30.8223 23.8652 30.8516 23.7168 30.8516 23.5605V23.1094C30.8516 22.9492 30.8203 22.7988 30.7578 22.6582C30.6992 22.5137 30.6094 22.3984 30.4883 22.3125C30.3672 22.2266 30.2129 22.1836 30.0254 22.1836C29.8457 22.1836 29.6934 22.2266 29.5684 22.3125C29.4473 22.3984 29.3555 22.5137 29.293 22.6582C29.2344 22.7988 29.2051 22.9492 29.2051 23.1094ZM32.3398 28.3652V27.9082C32.3398 27.5879 32.4102 27.2949 32.5508 27.0293C32.6953 26.7637 32.9023 26.5508 33.1719 26.3906C33.4414 26.2305 33.7656 26.1504 34.1445 26.1504C34.5352 26.1504 34.8633 26.2305 35.1289 26.3906C35.3984 26.5508 35.6016 26.7637 35.7383 27.0293C35.8789 27.2949 35.9492 27.5879 35.9492 27.9082V28.3652C35.9492 28.6855 35.8789 28.9785 35.7383 29.2441C35.6016 29.5098 35.4004 29.7227 35.1348 29.8828C34.8691 30.043 34.543 30.123 34.1562 30.123C33.7734 30.123 33.4453 30.043 33.1719 29.8828C32.9023 29.7227 32.6953 29.5098 32.5508 29.2441C32.4102 28.9785 32.3398 28.6855 32.3398 28.3652ZM33.3242 27.9082V28.3652C33.3242 28.5215 33.3555 28.6699 33.418 28.8105C33.4844 28.9512 33.5801 29.0664 33.7051 29.1562C33.8301 29.2422 33.9805 29.2852 34.1562 29.2852C34.3555 29.2852 34.5156 29.2422 34.6367 29.1562C34.7578 29.0664 34.8438 28.9531 34.8945 28.8164C34.9492 28.6758 34.9766 28.5254 34.9766 28.3652V27.9082C34.9766 27.748 34.9453 27.5977 34.8828 27.457C34.8242 27.3164 34.7324 27.2031 34.6074 27.1172C34.4863 27.0312 34.332 26.9883 34.1445 26.9883C33.9609 26.9883 33.8086 27.0312 33.6875 27.1172C33.5664 27.2031 33.4746 27.3164 33.4121 27.457C33.3535 27.5977 33.3242 27.748 33.3242 27.9082ZM34.4961 22.6875L30.3301 29.3555L29.6094 28.9395L33.7754 22.2715L34.4961 22.6875Z" fill="white"/>
<mask id="path-2-outside-1_153_2044" maskUnits="userSpaceOnUse" x="0" y="0" width="51" height="51" fill="black">
<rect fill="white" width="51" height="51"/>
<path d="M49 25.5C49 38.4787 38.4787 49 25.5 49C12.5213 49 2 38.4787 2 25.5C2 12.5213 12.5213 2 25.5 2C38.4787 2 49 12.5213 49 25.5ZM3.9809 25.5C3.9809 37.3847 13.6153 47.0191 25.5 47.0191C37.3847 47.0191 47.0191 37.3847 47.0191 25.5C47.0191 13.6153 37.3847 3.9809 25.5 3.9809C13.6153 3.9809 3.9809 13.6153 3.9809 25.5Z"/>
</mask>
<path d="M49 25.5C49 38.4787 38.4787 49 25.5 49C12.5213 49 2 38.4787 2 25.5C2 12.5213 12.5213 2 25.5 2C38.4787 2 49 12.5213 49 25.5ZM3.9809 25.5C3.9809 37.3847 13.6153 47.0191 25.5 47.0191C37.3847 47.0191 47.0191 37.3847 47.0191 25.5C47.0191 13.6153 37.3847 3.9809 25.5 3.9809C13.6153 3.9809 3.9809 13.6153 3.9809 25.5Z" fill="#272C35"/>
<path d="M49 25.5C49 38.4787 38.4787 49 25.5 49C12.5213 49 2 38.4787 2 25.5C2 12.5213 12.5213 2 25.5 2C38.4787 2 49 12.5213 49 25.5ZM3.9809 25.5C3.9809 37.3847 13.6153 47.0191 25.5 47.0191C37.3847 47.0191 47.0191 37.3847 47.0191 25.5C47.0191 13.6153 37.3847 3.9809 25.5 3.9809C13.6153 3.9809 3.9809 13.6153 3.9809 25.5Z" stroke="#272C35" stroke-width="3" mask="url(#path-2-outside-1_153_2044)"/>
<mask id="path-3-outside-2_153_2044" maskUnits="userSpaceOnUse" x="0" y="0" width="51" height="51" fill="black">
<rect fill="white" width="51" height="51"/>
<path d="M50 25.5C50 39.031 39.031 50 25.5 50C11.969 50 1 39.031 1 25.5C1 11.969 11.969 1 25.5 1C39.031 1 50 11.969 50 25.5ZM4.67262 25.5C4.67262 37.0026 13.9974 46.3274 25.5 46.3274C37.0026 46.3274 46.3274 37.0026 46.3274 25.5C46.3274 13.9974 37.0026 4.67262 25.5 4.67262C13.9974 4.67262 4.67262 13.9974 4.67262 25.5Z"/>
</mask>
<path d="M50 25.5C50 39.031 39.031 50 25.5 50C11.969 50 1 39.031 1 25.5C1 11.969 11.969 1 25.5 1C39.031 1 50 11.969 50 25.5ZM4.67262 25.5C4.67262 37.0026 13.9974 46.3274 25.5 46.3274C37.0026 46.3274 46.3274 37.0026 46.3274 25.5C46.3274 13.9974 37.0026 4.67262 25.5 4.67262C13.9974 4.67262 4.67262 13.9974 4.67262 25.5Z" fill="#36A17D"/>
<path d="M50 25.5C50 39.031 39.031 50 25.5 50C11.969 50 1 39.031 1 25.5C1 11.969 11.969 1 25.5 1C39.031 1 50 11.969 50 25.5ZM4.67262 25.5C4.67262 37.0026 13.9974 46.3274 25.5 46.3274C37.0026 46.3274 46.3274 37.0026 46.3274 25.5C46.3274 13.9974 37.0026 4.67262 25.5 4.67262C13.9974 4.67262 4.67262 13.9974 4.67262 25.5Z" stroke="#36A17D" stroke-width="2" mask="url(#path-3-outside-2_153_2044)"/>
</svg>
