<svg width="18" height="18" viewBox="0 0 18 18" fill="none" xmlns="http://www.w3.org/2000/svg">
<path d="M6.08333 0.75H1.63889C1.14797 0.75 0.75 1.14797 0.75 1.63889V6.08333C0.75 6.57425 1.14797 6.97222 1.63889 6.97222H6.08333C6.57425 6.97222 6.97222 6.57425 6.97222 6.08333V1.63889C6.97222 1.14797 6.57425 0.75 6.08333 0.75Z" stroke="#E3E5E8" stroke-width="1.5" stroke-linecap="round" stroke-linejoin="round"/>
<path d="M6.08333 10.5278H1.63889C1.14797 10.5278 0.75 10.9257 0.75 11.4167V15.8611C0.75 16.352 1.14797 16.75 1.63889 16.75H6.08333C6.57425 16.75 6.97222 16.352 6.97222 15.8611V11.4167C6.97222 10.9257 6.57425 10.5278 6.08333 10.5278Z" stroke="#E3E5E8" stroke-width="1.5" stroke-linecap="round" stroke-linejoin="round"/>
<path d="M10.5278 1.63889H16.75" stroke="#E3E5E8" stroke-width="1.5" stroke-linecap="round" stroke-linejoin="round"/>
<path d="M10.5278 6.08334H16.75" stroke="#E3E5E8" stroke-width="1.5" stroke-linecap="round" stroke-linejoin="round"/>
<path d="M10.5278 11.4167H16.75" stroke="#E3E5E8" stroke-width="1.5" stroke-linecap="round" stroke-linejoin="round"/>
<path d="M10.5278 15.8611H16.75" stroke="#E3E5E8" stroke-width="1.5" stroke-linecap="round" stroke-linejoin="round"/>
</svg>
