<svg width="51" height="51" viewBox="0 0 51 51" fill="none" xmlns="http://www.w3.org/2000/svg">
<path d="M14.8027 24.0301H15.6465C15.9746 24.0301 16.2461 23.9734 16.4609 23.8602C16.6797 23.7469 16.8418 23.5906 16.9473 23.3914C17.0527 23.1922 17.1055 22.9637 17.1055 22.7059C17.1055 22.4363 17.0566 22.2059 16.959 22.0145C16.8652 21.8192 16.7207 21.6688 16.5254 21.5633C16.334 21.4578 16.0898 21.4051 15.793 21.4051C15.543 21.4051 15.3164 21.4559 15.1133 21.5574C14.9141 21.6551 14.7559 21.7957 14.6387 21.9793C14.5215 22.159 14.4629 22.3738 14.4629 22.6238H13.0449C13.0449 22.1707 13.1641 21.7684 13.4023 21.4168C13.6406 21.0652 13.9648 20.7899 14.375 20.5906C14.7891 20.3875 15.2539 20.2859 15.7695 20.2859C16.3203 20.2859 16.8008 20.3777 17.2109 20.5613C17.625 20.741 17.9473 21.0106 18.1777 21.3699C18.4082 21.7293 18.5234 22.1746 18.5234 22.7059C18.5234 22.9481 18.4668 23.1942 18.3535 23.4442C18.2402 23.6942 18.0723 23.9227 17.8496 24.1297C17.627 24.3328 17.3496 24.4988 17.0176 24.6277C16.6855 24.7527 16.3008 24.8152 15.8633 24.8152H14.8027V24.0301ZM14.8027 25.1317V24.3582H15.8633C16.3633 24.3582 16.7891 24.4168 17.1406 24.534C17.4961 24.6512 17.7852 24.8133 18.0078 25.0203C18.2305 25.2234 18.3926 25.4559 18.4941 25.7176C18.5996 25.9793 18.6523 26.2567 18.6523 26.5496C18.6523 26.9481 18.5801 27.3035 18.4355 27.616C18.2949 27.9246 18.0938 28.1863 17.832 28.4012C17.5703 28.616 17.2637 28.7781 16.9121 28.8875C16.5645 28.9969 16.1855 29.0516 15.7754 29.0516C15.4082 29.0516 15.0566 29.0008 14.7207 28.8992C14.3848 28.7977 14.084 28.6473 13.8184 28.4481C13.5527 28.2449 13.3418 27.993 13.1855 27.6922C13.0332 27.3875 12.957 27.0359 12.957 26.6375H14.3691C14.3691 26.8914 14.4277 27.116 14.5449 27.3113C14.666 27.5027 14.834 27.6531 15.0488 27.7625C15.2676 27.8719 15.5176 27.9266 15.7988 27.9266C16.0957 27.9266 16.3516 27.8738 16.5664 27.7684C16.7812 27.6629 16.9453 27.5067 17.0586 27.2996C17.1758 27.0926 17.2344 26.8426 17.2344 26.5496C17.2344 26.2176 17.1699 25.9481 17.041 25.741C16.9121 25.534 16.7285 25.3817 16.4902 25.284C16.252 25.1824 15.9707 25.1317 15.6465 25.1317H14.8027ZM25.5254 23.9539V25.3484C25.5254 26.0164 25.459 26.5867 25.3262 27.0594C25.1973 27.5281 25.0098 27.909 24.7637 28.202C24.5176 28.4949 24.2227 28.7098 23.8789 28.8465C23.5391 28.9832 23.1582 29.0516 22.7363 29.0516C22.4004 29.0516 22.0879 29.0086 21.7988 28.9227C21.5137 28.8367 21.2559 28.702 21.0254 28.5184C20.7949 28.3348 20.5977 28.0984 20.4336 27.8094C20.2734 27.5164 20.1484 27.1668 20.0586 26.7606C19.9727 26.3543 19.9297 25.8836 19.9297 25.3484V23.9539C19.9297 23.282 19.9961 22.7156 20.1289 22.2547C20.2617 21.7899 20.4512 21.4129 20.6973 21.1238C20.9434 20.8309 21.2363 20.618 21.5762 20.4852C21.9199 20.3524 22.3027 20.2859 22.7246 20.2859C23.0645 20.2859 23.377 20.3289 23.6621 20.4149C23.9512 20.4969 24.209 20.6277 24.4355 20.8074C24.666 20.9871 24.8613 21.2215 25.0215 21.5106C25.1855 21.7957 25.3105 22.1414 25.3965 22.5477C25.4824 22.95 25.5254 23.4188 25.5254 23.9539ZM24.1133 25.5477V23.743C24.1133 23.4031 24.0938 23.1043 24.0547 22.8465C24.0156 22.5848 23.957 22.3641 23.8789 22.1844C23.8047 22.0008 23.7109 21.8524 23.5977 21.7391C23.4844 21.6219 23.3555 21.5379 23.2109 21.4871C23.0664 21.4324 22.9043 21.4051 22.7246 21.4051C22.5059 21.4051 22.3105 21.4481 22.1387 21.534C21.9668 21.616 21.8223 21.7488 21.7051 21.9324C21.5879 22.116 21.498 22.3582 21.4355 22.659C21.377 22.9559 21.3477 23.3172 21.3477 23.743V25.5477C21.3477 25.8914 21.3672 26.1942 21.4062 26.4559C21.4453 26.7176 21.5039 26.9422 21.582 27.1297C21.6602 27.3133 21.7539 27.4656 21.8633 27.5867C21.9766 27.7039 22.1055 27.7899 22.25 27.8445C22.3984 27.8992 22.5605 27.9266 22.7363 27.9266C22.959 27.9266 23.1562 27.8836 23.3281 27.7977C23.5 27.7117 23.6445 27.575 23.7617 27.3875C23.8789 27.1961 23.9668 26.9481 24.0254 26.6434C24.084 26.3387 24.1133 25.9734 24.1133 25.5477ZM26.7266 22.4949V22.0438C26.7266 21.7195 26.7969 21.4246 26.9375 21.159C27.0781 20.8934 27.2832 20.6805 27.5527 20.5203C27.8223 20.3602 28.1465 20.2801 28.5254 20.2801C28.916 20.2801 29.2441 20.3602 29.5098 20.5203C29.7793 20.6805 29.9844 20.8934 30.125 21.159C30.2656 21.4246 30.3359 21.7195 30.3359 22.0438V22.4949C30.3359 22.8113 30.2656 23.1024 30.125 23.368C29.9883 23.6336 29.7852 23.8465 29.5156 24.0067C29.25 24.1668 28.9238 24.2469 28.5371 24.2469C28.1543 24.2469 27.8262 24.1668 27.5527 24.0067C27.2832 23.8465 27.0781 23.6336 26.9375 23.368C26.7969 23.1024 26.7266 22.8113 26.7266 22.4949ZM27.7051 22.0438V22.4949C27.7051 22.6512 27.7344 22.7996 27.793 22.9402C27.8555 23.0809 27.9492 23.1942 28.0742 23.2801C28.1992 23.366 28.3535 23.409 28.5371 23.409C28.7246 23.409 28.877 23.366 28.9941 23.2801C29.1152 23.1942 29.2051 23.0809 29.2637 22.9402C29.3223 22.7996 29.3516 22.6512 29.3516 22.4949V22.0438C29.3516 21.8836 29.3203 21.7332 29.2578 21.5926C29.1992 21.4481 29.1094 21.3328 28.9883 21.2469C28.8672 21.1609 28.7129 21.118 28.5254 21.118C28.3457 21.118 28.1934 21.1609 28.0684 21.2469C27.9473 21.3328 27.8555 21.4481 27.793 21.5926C27.7344 21.7332 27.7051 21.8836 27.7051 22.0438ZM30.8398 27.2996V26.8426C30.8398 26.5223 30.9102 26.2293 31.0508 25.9637C31.1953 25.6981 31.4023 25.4852 31.6719 25.325C31.9414 25.1649 32.2656 25.0848 32.6445 25.0848C33.0352 25.0848 33.3633 25.1649 33.6289 25.325C33.8984 25.4852 34.1016 25.6981 34.2383 25.9637C34.3789 26.2293 34.4492 26.5223 34.4492 26.8426V27.2996C34.4492 27.6199 34.3789 27.9129 34.2383 28.1785C34.1016 28.4442 33.9004 28.657 33.6348 28.8172C33.3691 28.9774 33.043 29.0574 32.6562 29.0574C32.2734 29.0574 31.9453 28.9774 31.6719 28.8172C31.4023 28.657 31.1953 28.4442 31.0508 28.1785C30.9102 27.9129 30.8398 27.6199 30.8398 27.2996ZM31.8242 26.8426V27.2996C31.8242 27.4559 31.8555 27.6043 31.918 27.7449C31.9844 27.8856 32.0801 28.0008 32.2051 28.0906C32.3301 28.1766 32.4805 28.2195 32.6562 28.2195C32.8555 28.2195 33.0156 28.1766 33.1367 28.0906C33.2578 28.0008 33.3438 27.8875 33.3945 27.7508C33.4492 27.6102 33.4766 27.4598 33.4766 27.2996V26.8426C33.4766 26.6824 33.4453 26.532 33.3828 26.3914C33.3242 26.2508 33.2324 26.1375 33.1074 26.0516C32.9863 25.9656 32.832 25.9227 32.6445 25.9227C32.4609 25.9227 32.3086 25.9656 32.1875 26.0516C32.0664 26.1375 31.9746 26.2508 31.9121 26.3914C31.8535 26.532 31.8242 26.6824 31.8242 26.8426ZM32.9961 21.6219L28.8301 28.2899L28.1094 27.8738L32.2754 21.2059L32.9961 21.6219Z" fill="white"/>
<mask id="path-2-outside-1_153_2067" maskUnits="userSpaceOnUse" x="-0.5" y="-0.0656128" width="51" height="51" fill="black">
<rect fill="white" x="-0.5" y="-0.0656128" width="51" height="51"/>
<path d="M48.5 25.4344C48.5 38.4131 37.9787 48.9344 25 48.9344C12.0213 48.9344 1.5 38.4131 1.5 25.4344C1.5 12.4557 12.0213 1.93439 25 1.93439C37.9787 1.93439 48.5 12.4557 48.5 25.4344ZM3.4809 25.4344C3.4809 37.3191 13.1153 46.9535 25 46.9535C36.8847 46.9535 46.5191 37.3191 46.5191 25.4344C46.5191 13.5497 36.8847 3.91528 25 3.91528C13.1153 3.91528 3.4809 13.5497 3.4809 25.4344Z"/>
</mask>
<path d="M48.5 25.4344C48.5 38.4131 37.9787 48.9344 25 48.9344C12.0213 48.9344 1.5 38.4131 1.5 25.4344C1.5 12.4557 12.0213 1.93439 25 1.93439C37.9787 1.93439 48.5 12.4557 48.5 25.4344ZM3.4809 25.4344C3.4809 37.3191 13.1153 46.9535 25 46.9535C36.8847 46.9535 46.5191 37.3191 46.5191 25.4344C46.5191 13.5497 36.8847 3.91528 25 3.91528C13.1153 3.91528 3.4809 13.5497 3.4809 25.4344Z" fill="#272C35"/>
<path d="M48.5 25.4344C48.5 38.4131 37.9787 48.9344 25 48.9344C12.0213 48.9344 1.5 38.4131 1.5 25.4344C1.5 12.4557 12.0213 1.93439 25 1.93439C37.9787 1.93439 48.5 12.4557 48.5 25.4344ZM3.4809 25.4344C3.4809 37.3191 13.1153 46.9535 25 46.9535C36.8847 46.9535 46.5191 37.3191 46.5191 25.4344C46.5191 13.5497 36.8847 3.91528 25 3.91528C13.1153 3.91528 3.4809 13.5497 3.4809 25.4344Z" stroke="#272C35" stroke-width="3" mask="url(#path-2-outside-1_153_2067)"/>
<mask id="path-3-outside-2_153_2067" maskUnits="userSpaceOnUse" x="23.5" y="-0.0656128" width="27" height="50" fill="black">
<rect fill="white" x="23.5" y="-0.0656128" width="27" height="50"/>
<path d="M30.6536 47.3816C30.9066 48.3637 31.9109 48.9614 32.8713 48.6356C37.9042 46.9282 42.2633 43.6231 45.2678 39.1991C48.6174 34.267 50.0536 28.2828 49.3073 22.3677C48.5611 16.4527 45.6835 11.0127 41.214 7.06709C37.2048 3.52794 32.1614 1.40903 26.8621 1.00522C25.8509 0.928162 25.0266 1.75655 25.0254 2.77071C25.0243 3.78488 25.8472 4.59954 26.8573 4.68995C31.2617 5.08419 35.4445 6.87291 38.7834 9.8204C42.583 13.1745 45.0292 17.799 45.6636 22.8274C46.298 27.8558 45.0771 32.943 42.2296 37.1357C39.7273 40.8201 36.1199 43.5917 31.9514 45.0675C30.9954 45.406 30.4006 46.3995 30.6536 47.3816Z"/>
</mask>
<path d="M30.6536 47.3816C30.9066 48.3637 31.9109 48.9614 32.8713 48.6356C37.9042 46.9282 42.2633 43.6231 45.2678 39.1991C48.6174 34.267 50.0536 28.2828 49.3073 22.3677C48.5611 16.4527 45.6835 11.0127 41.214 7.06709C37.2048 3.52794 32.1614 1.40903 26.8621 1.00522C25.8509 0.928162 25.0266 1.75655 25.0254 2.77071C25.0243 3.78488 25.8472 4.59954 26.8573 4.68995C31.2617 5.08419 35.4445 6.87291 38.7834 9.8204C42.583 13.1745 45.0292 17.799 45.6636 22.8274C46.298 27.8558 45.0771 32.943 42.2296 37.1357C39.7273 40.8201 36.1199 43.5917 31.9514 45.0675C30.9954 45.406 30.4006 46.3995 30.6536 47.3816Z" fill="#D74242"/>
<path d="M30.6536 47.3816C30.9066 48.3637 31.9109 48.9614 32.8713 48.6356C37.9042 46.9282 42.2633 43.6231 45.2678 39.1991C48.6174 34.267 50.0536 28.2828 49.3073 22.3677C48.5611 16.4527 45.6835 11.0127 41.214 7.06709C37.2048 3.52794 32.1614 1.40903 26.8621 1.00522C25.8509 0.928162 25.0266 1.75655 25.0254 2.77071C25.0243 3.78488 25.8472 4.59954 26.8573 4.68995C31.2617 5.08419 35.4445 6.87291 38.7834 9.8204C42.583 13.1745 45.0292 17.799 45.6636 22.8274C46.298 27.8558 45.0771 32.943 42.2296 37.1357C39.7273 40.8201 36.1199 43.5917 31.9514 45.0675C30.9954 45.406 30.4006 46.3995 30.6536 47.3816Z" stroke="#D74242" stroke-width="2" mask="url(#path-3-outside-2_153_2067)"/>
</svg>
