<svg width="18" height="24" viewBox="0 0 18 24" fill="none" xmlns="http://www.w3.org/2000/svg">
<path d="M4.90002 14.2158C5.65779 14.2158 6.38451 13.9108 6.92033 13.368C7.45615 12.8251 7.75717 12.0888 7.75717 11.3211C7.75717 9.72318 7.18574 9.00529 6.61431 7.84739C5.38917 5.36602 6.35831 3.15329 8.90002 0.900024C9.47145 3.79476 11.1857 6.57371 13.4715 8.42634C15.7572 10.279 16.9 12.479 16.9 14.7948C16.9 15.8592 16.6931 16.9131 16.2911 17.8965C15.889 18.8799 15.2997 19.7734 14.5569 20.526C13.814 21.2787 12.9321 21.8757 11.9615 22.283C10.9909 22.6904 9.9506 22.9 8.90002 22.9C7.84945 22.9 6.80916 22.6904 5.83856 22.283C4.86795 21.8757 3.98604 21.2787 3.24317 20.526C2.5003 19.7734 1.91103 18.8799 1.50899 17.8965C1.10695 16.9131 0.900024 15.8592 0.900024 14.7948C0.900024 13.4597 1.39488 12.1386 2.04288 11.3211C2.04288 12.0888 2.3439 12.8251 2.87972 13.368C3.41554 13.9108 4.14226 14.2158 4.90002 14.2158Z" stroke="white" stroke-width="1.8" stroke-linecap="round" stroke-linejoin="round"/>
</svg>
